<?xml version="1.0" encoding="utf-8" standalone="yes"?>
<!DOCTYPE svg PUBLIC "-//W3C//DTD SVG 1.1//EN" "http://www.w3.org/Graphics/SVG/1.1/DTD/svg11.dtd">
<svg xmlns="http://www.w3.org/2000/svg" xmlns:xlink="http://www.w3.org/1999/xlink" xmlns:dc="http://purl.org/dc/elements/1.1/" 
xmlns:cc="http://web.resource.org/cc/" xmlns:rdf="http://www.w3.org/1999/02/22-rdf-syntax-ns#" 
xmlns:sodipodi="http://sodipodi.sourceforge.net/DTD/sodipodi-0.dtd" xmlns:inkscape="http://www.inkscape.org/namespaces/inkscape" 
version="1.1" baseProfile="full" width="480px" height="360px" viewBox="0 0 480 360"
 preserveAspectRatio="xMidYMid meet" id="svg_document" style="zoom: 1;">
 <!-- Created with macSVG - https://macsvg.org/ - https://github.com/dsward2/macsvg/ -->
 <title id="svg_document_title">Untitled.svg</title><defs id="svg_document_defs"></defs><g id="main_group">
 <line stroke="#ffffff" y1="30px" id="line1" x1="89px" stroke-width="3px" y2="39px" x2="89px" transform="">
 </line><line stroke="#ffffff" y1="19px" id="line2" x1="60px" stroke-width="3px" y2="10px" x2="71px" transform="">
 </line><line stroke="#ffffff" y1="79px" id="line3" x1="27px" stroke-width="3px" y2="86px" x2="24px" transform="">
 </line><line stroke="#ffffff" y1="105px" id="line5" x1="66px" stroke-width="3px" y2="107px" x2="73px" transform="">
 </line><line stroke="#ffffff" y1="62px" id="line6" x1="10px" stroke-width="3px" y2="62px" x2="10px" transform="">
 </line></g><polyline points="37,102 31,106 29,106 25,104 22,99 26,100 31,102 37,101 31,99 27,95 23,91 21,84 23,80 27,74 32,72 32,78 33,83 28,86 23,91 19,84 15,75 15,70 12,65 8,65 5,59 5,49 5,42 9,46 12,51 10,56 12,61 15,64 15,56 19,46 23,37 26,36 30,39 35,39 40,36 40,31 34,31 28,33 23,35 31,27 42,23 49,21 56,19 62,14 67,8 73,6 80,8 85,12 81,14 75,12 69,15 65,18 71,18 76,22 82,24 89,27 85,34 84,40 86,43 91,47 91,43 94,39 91,35 89,27 95,34 101,40 103,45 110,46 114,49 115,55 115,64 111,60 108,55 108,49 102,43 104,51 105,58 107,66 103,68 96,68 96,71 97,75 101,80 104,76 106,70 107,65 108,76 101,86 97,91 94,95 94,103 94,115 89,117 82,118 84,113 88,109 90,103 92,94 86,104 76,107 75,107 69,102 64,100 59,101 57,106 65,109 71,109 73,109 59,110 52,110 42,106 36,100 " stroke="#ffffff" font-family="Chalkduster" id="polyline1" stroke-width="3px" text-anchor="middle" visibility="visible" fill="none" font-size="30px" transform="">h</polyline><text stroke="none" style="outline-style:none;" id="text1" stroke-width="1px" x="58px" font-weight="bold" text-rendering="geometricPrecision" font-family="Noteworthy-Light" fill="white" font-size="27px" y="70px" transform="" text-anchor="middle" visibility="visible">Home</text><line stroke="#ffffff" y1="111px" id="line4" x1="91px" stroke-width="3px" y2="103px" x2="91px" transform=""></line><line stroke="#ffffff" y1="36px" id="line7" x1="28px" stroke-width="3px" y2="36px" x2="35px" transform=""></line><line stroke="#ffffff" y1="73px" id="line8" x1="101px" stroke-width="3px" y2="68px" x2="105px" transform=""></line></svg>