<?xml version="1.0" encoding="utf-8" standalone="yes"?>
<!DOCTYPE svg PUBLIC "-//W3C//DTD SVG 1.1//EN" "http://www.w3.org/Graphics/SVG/1.1/DTD/svg11.dtd">
<svg xmlns="http://www.w3.org/2000/svg" xmlns:xlink="http://www.w3.org/1999/xlink" xmlns:dc="http://purl.org/dc/elements/1.1/" xmlns:cc="http://web.resource.org/cc/" xmlns:rdf="http://www.w3.org/1999/02/22-rdf-syntax-ns#" xmlns:sodipodi="http://sodipodi.sourceforge.net/DTD/sodipodi-0.dtd" xmlns:inkscape="http://www.inkscape.org/namespaces/inkscape" version="1.1" baseProfile="full" width="480px" height="360px" viewBox="0 0 480 360" preserveAspectRatio="xMidYMid meet" id="svg_document" style="zoom: 1;"><!-- Created with macSVG - https://macsvg.org/ - https://github.com/dsward2/macsvg/ --><title id="svg_document_title" visibility="visible">Untitled.svg</title><g id="main_group" visibility="visible"><polygon points="6,103 50,161 65,170 198,99 198,83 189,72 179,73 167,77 148,89 134,66 94,86 71,100 51,121 32,97 20,92 10,94" stroke="#000000" id="polygon2" stroke-width="3px" fill="lavenderblush" transform="" visibility="visible"></polygon><circle stroke="#000000" transform="" visibility="visible" id="circle2" stroke-width="3px" cy="102px" fill="deeppink" r="6px" cx="91px"></circle><circle stroke="#000000" visibility="visible" id="circle3" cy="82px" stroke-width="3px" fill="deeppink" r="6px" cx="127px" transform=""></circle><circle stroke="#000000" transform="" visibility="visible" stroke-width="3px" id="circle5" cy="92px" fill="deeppink" r="6px" cx="108px"></circle><polygon points="84,90 75,72 73,43 107,79" stroke="#000000" id="polygon3" stroke-width="3px" fill="lavenderblush" transform="" visibility="visible"></polygon></g><circle stroke="#000000" transform="" id="circle1" stroke-width="3px" cy="113px" fill="deeppink" r="6px" cx="73px" visibility="visible"></circle><polygon points="36,163 29,162 29,155 31,145 42,138 53,135 66,133 63,147 51,159" stroke="#000000" id="polygon4" stroke-width="3px" fill="aquamarine" transform="" visibility="visible"></polygon><polygon points="138,67 149,87 167,76 160,69 150,63" stroke="#000000" id="polygon5" stroke-width="3px" fill="aquamarine" transform="" visibility="visible"></polygon><polygon points="98,115 107,127 111,144 112,171 112,182 124,177 132,162 132,133 131,111 123,97" stroke="#000000" id="polygon6" stroke-width="3px" fill="lavenderblush" transform="" visibility="visible"></polygon></svg>